<svg id="visual" viewBox="0 0 960 540" width="960" height="540"
    xmlns="http://www.w3.org/2000/svg"
    xmlns:xlink="http://www.w3.org/1999/xlink" version="1.1">
    <rect x="0" y="0" width="960" height="540" fill="#ffffff"></rect>
    <path d="M0 461L10 453.7C20 446.3 40 431.7 60 420.8C80 410 100 403 120 404.8C140 406.7 160 417.3 180 413.3C200 409.3 220 390.7 240 381.3C260 372 280 372 300 383.7C320 395.3 340 418.7 360 435.2C380 451.7 400 461.3 420 450.2C440 439 460 407 480 398.8C500 390.7 520 406.3 540 416.2C560 426 580 430 600 420.8C620 411.7 640 389.3 660 392.3C680 395.3 700 423.7 720 425C740 426.3 760 400.7 780 386C800 371.3 820 367.7 840 380.3C860 393 880 422 900 434.7C920 447.3 940 443.7 950 441.8L960 440L960 541L950 541C940 541 920 541 900 541C880 541 860 541 840 541C820 541 800 541 780 541C760 541 740 541 720 541C700 541 680 541 660 541C640 541 620 541 600 541C580 541 560 541 540 541C520 541 500 541 480 541C460 541 440 541 420 541C400 541 380 541 360 541C340 541 320 541 300 541C280 541 260 541 240 541C220 541 200 541 180 541C160 541 140 541 120 541C100 541 80 541 60 541C40 541 20 541 10 541L0 541Z" fill="#D6C1AB" stroke-linecap="round" stroke-linejoin="miter"></path>
</svg>