<svg xmlns="http://www.w3.org/2000/svg" width="300" height="76.744181576432" viewBox="0 0 320 76.744181576432" class="css-1j8o68f">
    <defs id="SvgjsDefs2481"></defs>
    <g id="SvgjsG2482" featurekey="symbolFeature-0" transform="matrix(1.291989638612148,0,0,1.291989638612148,-14.599483162744741,-26.22738867811674)" fill="#111111">
        <g xmlns="http://www.w3.org/2000/svg">
            <path d="M86.7,64.8h-3.6c-0.6-14.5-11.9-26.5-26.8-29.2C58,34,59,31.8,59,29.3c0-5-4-9-9-9s-9,4-9,9c0,2.5,1,4.8,2.7,6.4   c-14.9,2.7-26.2,14.7-26.8,29.2h-3.6c-1.1,0-2,0.9-2,2s0.9,2,2,2h73.4c1.1,0,2-0.9,2-2S87.8,64.8,86.7,64.8z M50,24.3   c2.8,0,5,2.2,5,5s-2.2,5-5,5s-5-2.2-5-5S47.2,24.3,50,24.3z M50,39.1c15.6,0,28.4,11.5,29.1,25.8H20.9C21.6,50.5,34.4,39.1,50,39.1   z"></path>
            <path d="M86.7,75.7H13.3c-1.1,0-2,0.9-2,2s0.9,2,2,2h73.4c1.1,0,2-0.9,2-2S87.8,75.7,86.7,75.7z"></path>
        </g>
    </g>
    <g id="SvgjsG2483" featurekey="nameFeature-0" transform="matrix(0.9165901687676403,0,0,0.9165901687676403,118.38680109317811,11.22089940550171)" fill="#111111">
        <path d="M24.08 17.96 l-13.44 0 l0 5.08 l12.56 0 l0 6.12 l-12.56 0 l0 10.84 l-8.88 0 l0 -28.24 l22.32 0 l0 6.2 z M49.96 29.68 c0 1.12 -0.2 4.68 -2.68 7.44 c-1.44 1.6 -4.52 3.68 -9.68 3.68 c-1.2 0 -4.92 -0.04 -7.96 -2.44 c-1.52 -1.2 -3.84 -3.84 -3.84 -8.56 c0 -2.88 0.88 -5.72 2.84 -7.84 c1.4 -1.52 4.36 -3.6 9.4 -3.56 c1.08 0 5.36 0.12 8.44 2.8 c2.32 2.04 3.48 5.4 3.48 8.48 z M41.64 29.48 c0 -3.12 -1 -4.56 -2.48 -5.08 c-0.6 -0.2 -1.12 -0.2 -1.36 -0.2 c-1.44 0.04 -2.24 0.76 -2.6 1.16 c-0.64 0.68 -1.2 2.08 -1.2 4.2 c0 2.04 0.52 3.44 1.04 4.16 c0.32 0.44 0.76 0.8 1.24 1 c0.24 0.12 0.84 0.28 1.56 0.28 c0.96 0 1.84 -0.28 2.48 -0.92 c0.72 -0.72 1.32 -2.28 1.32 -4.6 z M75.80000000000001 29.68 c0 1.12 -0.2 4.68 -2.68 7.44 c-1.44 1.6 -4.52 3.68 -9.68 3.68 c-1.2 0 -4.92 -0.04 -7.96 -2.44 c-1.52 -1.2 -3.84 -3.84 -3.84 -8.56 c0 -2.88 0.88 -5.72 2.84 -7.84 c1.4 -1.52 4.36 -3.6 9.4 -3.56 c1.08 0 5.36 0.12 8.44 2.8 c2.32 2.04 3.48 5.4 3.48 8.48 z M67.48 29.48 c0 -3.12 -1 -4.56 -2.48 -5.08 c-0.6 -0.2 -1.12 -0.2 -1.36 -0.2 c-1.44 0.04 -2.24 0.76 -2.6 1.16 c-0.64 0.68 -1.2 2.08 -1.2 4.2 c0 2.04 0.52 3.44 1.04 4.16 c0.32 0.44 0.76 0.8 1.24 1 c0.24 0.12 0.84 0.28 1.56 0.28 c0.96 0 1.84 -0.28 2.48 -0.92 c0.72 -0.72 1.32 -2.28 1.32 -4.6 z M99.96000000000001 40 l-7.96 0 l-0.04 -1.48 c-0.08 0.08 -0.44 0.52 -0.84 0.84 c-1.16 0.84 -2.92 1.16 -4.36 1.16 c-2.2 0 -3.76 -0.72 -4.48 -1.16 c-4.76 -2.72 -4.88 -9 -4.84 -10.2 c0 -0.72 0 -2.64 0.72 -4.64 c0.64 -1.72 2.84 -5.84 8.36 -5.84 c0.64 0 2.48 0.04 4.12 1.12 c0.36 0.24 0.56 0.4 1.12 0.92 l0 -8.96 l8.2 0 l0 28.24 z M91.96000000000001 29.560000000000002 c0 -1.16 -0.08 -2.36 -0.64 -3.4 c-0.76 -1.36 -2.04 -1.6 -2.6 -1.6 c-0.6 0 -1.24 0.24 -1.72 0.6 c-0.92 0.72 -1.44 2.04 -1.44 4.44 c0 1.28 0.2 3.08 1.16 4.08 c0.48 0.52 1.32 0.88 2.08 0.88 c0.8 0 1.4 -0.36 1.6 -0.52 c1.44 -1 1.56 -2.96 1.56 -4.48 z M143.16 25.759999999999998 c0 2.08 -0.28 3.64 -0.44 4.4 c-0.44 1.84 -1.88 7.48 -7.84 9.2 c-2.28 0.68 -4.84 0.64 -7.16 0.64 l-11.76 0 l0 -28.24 l9.6 0 c1.24 0 2.52 0.04 3.76 0.08 c3.76 0.16 7.2 0.52 10.04 3.24 c1.84 1.8 3.8 4.96 3.8 10.68 z M134.16 25.880000000000003 c0 -0.24 0.08 -5 -2.56 -6.72 c-0.84 -0.52 -1.52 -0.8 -3.32 -0.8 l-3.36 0 l0 15.16 l3.4 0 c0.96 0 1.72 -0.08 2.6 -0.52 c3.32 -1.6 3.24 -6.68 3.24 -7.12 z M154.11999999999998 17.24 l-8.24 0 l0 -5.48 l8.24 0 l0 5.48 z M154.11999999999998 40 l-8.24 0 l0 -20.72 l8.24 0 l0 20.72 z M179.07999999999998 40 l-8.12 0 l0 -1.6 c-0.32 0.24 -0.72 0.56 -1.52 0.96 c-0.88 0.44 -2.76 1.12 -5.36 1.12 c-0.52 0 -1.92 0 -3.32 -0.52 c-2.68 -1.04 -4.12 -3.36 -4.12 -6.16 c0 -1.12 0.24 -3.6 2.84 -5.36 c1.72 -1.16 3.92 -1.44 5.92 -1.72 c1.16 -0.16 2.4 -0.32 3.56 -0.56 c0.52 -0.12 1.08 -0.24 1.6 -0.4 c0 -0.08 0 -0.64 -0.12 -0.96 c-0.24 -0.84 -0.84 -1.44 -2.68 -1.44 c-0.6 0 -1 0.08 -1.2 0.12 c-1.28 0.32 -1.4 1.4 -1.52 1.84 l-7.72 0.2 c0.08 -0.44 0.2 -0.84 0.28 -1.24 c0.2 -0.8 0.64 -2.24 2.28 -3.52 s4.16 -2.16 8.64 -2.16 c3.24 0 7.64 0.52 9.24 3.88 c0.44 0.92 0.6 1.76 0.6 3.68 l0 11.28 c0 1.52 0.2 1.84 0.72 2.56 z M170.51999999999998 30.36 c-1.04 0.36 -2.08 0.68 -3.12 0.96 c-0.88 0.2 -2.12 0.48 -2.76 1.28 c-0.08 0.12 -0.36 0.48 -0.36 0.96 c0 0.64 0.52 1.6 2.04 1.6 c0.72 0 1.36 -0.24 2 -0.56 c2.32 -1.24 2.2 -3.28 2.2 -4.24 z M196.48 25.8 c-0.4 -0.04 -0.8 -0.08 -1.2 -0.08 c-0.64 -0.04 -4.16 -0.24 -5.16 2.56 c-0.24 0.68 -0.24 1.24 -0.24 1.96 l0 9.76 l-8.2 0 l0 -20.72 l7.92 0 l0 1.8 c0.4 -0.36 0.68 -0.6 1.12 -0.88 c1.84 -1.28 3.6 -1.36 5.76 -1.36 l0 6.96 z M219.96 19.28 l-7.56 21.92 c-0.64 1.84 -1.36 3.72 -2.92 5 c-1.64 1.32 -3.24 1.28 -5.28 1.28 c-0.68 0 -1.4 0.04 -2.08 -0.04 l-2.28 -0.24 l0 -5.88 c0.8 0.04 1.56 0.12 2.36 0.12 c1.16 0 1.72 -0.24 1.72 -1 c0 -0.32 -0.32 -1.2 -0.64 -2.12 l-6.56 -19.04 l8.6 0 l2.96 13.52 s3.08 -13.28 3.12 -13.52 l8.56 0 z"></path>
    </g>
</svg>