<svg xmlns="http://www.w3.org/2000/svg" fill="#000" viewBox="0 0 320 83.59443299615448" class="css-g5ufxp" id="cbgegaeg">
    <defs id="SvgjsDefs2255"></defs>
    <g id="SvgjsG2256" featurekey="symbolFeature-0" transform="matrix(1.7522400811683723,0,0,1.7522400811683723,-6.972503923162497,-21.540286034423836)">
        <path xmlns="http://www.w3.org/2000/svg" d="M14.142,29.217l.168,0c.124-.289.249-.564.379-.819a13.455,13.455,0,0,1,1.7-2.6l-1.8-1.8H10V22h2.586L9.293,18.707l1.414-1.414L14,20.586V18h2v4.586l1.776,1.776a13.242,13.242,0,0,1,3.454-2.227A9.959,9.959,0,0,0,12,16H8v4A9.928,9.928,0,0,0,14.142,29.217Z"></path>
        <path xmlns="http://www.w3.org/2000/svg" d="M16.475,29.3c-.024.048-.047.1-.072.152,2.532.593,5.036,2.3,7.391,5.093a29.677,29.677,0,0,1,5.86,11.4A12.8,12.8,0,0,1,29.9,50.49l18.506-3.777a7.382,7.382,0,0,1,5.467,1.013l.962-2.145A24.679,24.679,0,0,0,57,35.53,13.947,13.947,0,0,0,55.526,29.3a11.333,11.333,0,0,0-4.193-4.6,11.407,11.407,0,0,0-13.1.792L37,26.48V25.071a15.966,15.966,0,0,1,4.707-11.364l-1.414-1.414A17.951,17.951,0,0,0,35,25.071V26.48l-1.235-.99A11.429,11.429,0,0,0,26.66,23,11.307,11.307,0,0,0,16.475,29.3Z"></path>
        <path xmlns="http://www.w3.org/2000/svg" d="M35.425,19.929a8.018,8.018,0,0,0-6.858-6.858A8.019,8.019,0,0,0,35.425,19.929Z"></path>
        <path xmlns="http://www.w3.org/2000/svg" d="M15.4,42.094A7,7,0,0,0,10.184,50.5a6.853,6.853,0,0,0,2.13,3.577l11.042-2.253A6.991,6.991,0,0,0,15.4,42.094Z"></path>
        <path xmlns="http://www.w3.org/2000/svg" d="M7.847,54.991,10,54.552a9,9,0,1,1,15.767-7.7,9.079,9.079,0,0,1-.115,4.506l2.142-.437a10.809,10.809,0,0,0-.084-4.522A27.478,27.478,0,0,0,22.266,35.83c-2.138-2.53-5.5-5.356-9.368-4.446s-5.631,4.928-6.425,8.144a27.43,27.43,0,0,0-.189,11.884A10.859,10.859,0,0,0,7.847,54.991Z"></path>
        <path xmlns="http://www.w3.org/2000/svg" d="M61.049,52.979l-.412-1.958-2.3.485,1.332-1.941-1.65-1.13-2.744,4a.958.958,0,0,0-.118.256A5.39,5.39,0,0,0,49.9,48.562a5.484,5.484,0,0,0-1.093.11l-.1.021a9.906,9.906,0,0,1-.249,3.619l-.1.382-1.934-.507.1-.381a7.928,7.928,0,0,0,.22-2.712l-5.751,1.173a9.806,9.806,0,0,1-.48,4.489l-1.884-.672a7.825,7.825,0,0,0,.407-3.417l-4.881,1a9.863,9.863,0,0,1-.532,3.953l-1.884-.672a7.845,7.845,0,0,0,.444-2.879l-4.891,1a9.83,9.83,0,0,1-.559,3.414L24.848,55.8a7.787,7.787,0,0,0,.437-2.33l-4.889,1a9.655,9.655,0,0,1-.555,2.867l-1.883-.674a7.676,7.676,0,0,0,.4-1.776L4.962,57.62A1.2,1.2,0,0,0,5.2,60H49.333a5.4,5.4,0,0,0,3.846-1.593l.561-.562A5.4,5.4,0,0,0,55.333,54c0-.148-.03-.289-.042-.434a.962.962,0,0,0,.078.118l3.744,4,1.46-1.368-2.531-2.7Z"></path>
    </g>
    <g id="SvgjsG2257" featurekey="nameFeature-0" transform="matrix(1.1064395113844532,0,0,1.1064395113844532,117.30028937548111,8.979867700318252)">
        <path d="M8.72 9.96 l13.4 0 l0 1.32 c0 0.24 -0.2 0.44 -0.44 0.44 l-12.96 0 c-2.32 0 -4.2 1.88 -4.2 4.2 l0 8.56 c0.24 -0.24 0.6 -0.4 1 -0.4 l15.72 0 l0 1.32 c0 0.28 -0.24 0.48 -0.48 0.48 l-16.24 0 l0 13.68 c0 0.24 -0.2 0.44 -0.44 0.44 l-1.64 0 l0 -23.76 c0 -3.44 2.8 -6.28 6.28 -6.28 z M36.400000000000006 40.28 l-6.04 0 c-2.76 0 -4.96 -2.24 -4.96 -5 l0 -10.52 c0 -2.76 2.2 -5.04 4.96 -5.04 l6.04 0 c2.72 0 4.92 2.28 4.92 5.04 l0 10.52 c0 2.76 -2.2 5 -4.92 5 z M36.400000000000006 21.4 l-6.04 0 c-1.76 0 -3.16 1.44 -3.16 3.2 l0 10.84 c0 1.76 1.4 3.16 3.16 3.16 l6.04 0 c1.72 0 3.12 -1.4 3.12 -3.16 l0 -10.84 c0 -1.76 -1.4 -3.2 -3.12 -3.2 z M57.080000000000005 40.28 l-6.04 0 c-2.76 0 -4.96 -2.24 -4.96 -5 l0 -10.52 c0 -2.76 2.2 -5.04 4.96 -5.04 l6.04 0 c2.72 0 4.92 2.28 4.92 5.04 l0 10.52 c0 2.76 -2.2 5 -4.92 5 z M57.080000000000005 21.4 l-6.04 0 c-1.76 0 -3.16 1.44 -3.16 3.2 l0 10.84 c0 1.76 1.4 3.16 3.16 3.16 l6.04 0 c1.72 0 3.12 -1.4 3.12 -3.16 l0 -10.84 c0 -1.76 -1.4 -3.2 -3.12 -3.2 z M80.84 10 l1.36 0 l0 29.56 c0 0.24 -0.2 0.44 -0.44 0.44 l-10.28 0 c-2.76 0 -4.96 -2.24 -4.96 -5 l0 -10 c0 -2.76 2.2 -5 4.96 -5 l7.8 0 c0.56 0 1.08 0.32 1.12 0.76 l0 -10.32 c0 -0.24 0.2 -0.44 0.44 -0.44 z M71.48 38.32 l8.92 0 l0 -15.96 c-0.04 -0.4 -0.32 -0.68 -0.68 -0.72 l-8.24 0 c-1.76 0 -3.16 1.44 -3.16 3.2 l0 10.32 c0 1.76 1.4 3.16 3.16 3.16 z M101.12 38.76 l0 -27.56 c0 -0.68 0.56 -1.24 1.24 -1.24 l13.96 0 c3.44 0 6.28 2.84 6.28 6.28 l0 17.48 c0 3.48 -2.84 6.28 -6.28 6.28 l-13.96 0 c-0.68 0 -1.24 -0.56 -1.24 -1.24 z M103.68 38.28 l12.64 0 c2.28 0 4.2 -1.88 4.2 -4.2 l0 -18.16 c0 -2.32 -1.92 -4.2 -4.2 -4.2 l-12.64 0 c-0.28 0 -0.48 0.2 -0.48 0.44 l0 25.64 c0 0.28 0.2 0.48 0.48 0.48 z M127.28 39.56 l0 -19.56 l1.36 0 c0.24 0 0.44 0.16 0.44 0.4 l0 19.6 l-1.36 0 c-0.24 0 -0.44 -0.2 -0.44 -0.44 z M127.28 13 l0 -1.88 l1.4 0 c0.24 0 0.4 0.2 0.4 0.4 l0 1.88 l-1.4 0 c-0.24 0 -0.4 -0.16 -0.4 -0.4 z M144.36 19.96 c2.76 0 4.96 2.28 4.96 5.04 l0 14.56 c0 0.24 -0.2 0.44 -0.44 0.44 l-10.04 0 c-2.76 0 -4.96 -2.24 -4.96 -5 l0 -2.08 c0 -2.8 2.2 -5.04 4.96 -5.04 l8.24 0 c0.24 0 0.4 -0.16 0.44 -0.44 l0 -2.6 c0 -1.76 -1.4 -3.2 -3.16 -3.2 l-8.36 0 c-0.2 0 -0.4 -0.2 -0.4 -0.44 l0 -1.24 l8.76 0 z M138.84 38.24 l8.68 0 l0 -8.84 c-0.08 0.08 -0.2 0.16 -0.32 0.16 l-8.36 0 c-1.76 0 -3.16 1.44 -3.16 3.2 l0 2.32 c0 1.76 1.4 3.16 3.16 3.16 z M154.08 20 l1.8 0 l0 1.32 s0.8 -1.32 3.52 -1.32 l4.56 0 l0 1.24 c0 0.24 -0.2 0.4 -0.44 0.4 l-4.92 0 c-2.8 0 -2.72 2.88 -2.72 2.88 l0 15.48 l-1.8 0 l0 -20 z M182.76000000000002 20 c0.24 0 0.44 0.16 0.44 0.4 l0 24.32 c0 2.8 -2.2 5.04 -4.96 5.04 l-10 0 l0 -1.24 c0 -0.24 0.2 -0.44 0.4 -0.44 l9.6 0 c1.76 0 3.16 -1.4 3.16 -3.16 l0 -5.52 c-0.16 0.36 -0.56 0.56 -1.08 0.56 l-7.84 0.04 c-3.36 0 -4.92 -2.28 -4.92 -5.04 l0 -14.96 l1.36 0 c0.24 0 0.44 0.16 0.44 0.4 l0 14.6 c0 1.76 0.76 3.32 3.12 3.32 l8.2 0 c0.4 0 0.72 -0.32 0.72 -0.72 l0 -17.6 l1.36 0 z"></path>
    </g>
</svg>